<svg width="137" height="143" viewBox="0 0 137 143" fill="none" xmlns="http://www.w3.org/2000/svg">
<path fill-rule="evenodd" clip-rule="evenodd" d="M58.6981 140.527C38.6706 138.062 12.942 140.487 3.23441 122.786C-6.43506 105.155 14.0371 86.3786 18.2098 66.7002C22.3423 47.2109 12.2821 23.1406 27.169 9.90963C42.6025 -3.80728 67.2903 -1.37686 86.5942 5.92214C103.559 12.3366 111.879 29.6985 120.996 45.3866C129.383 59.8196 138.155 74.5611 136.112 91.1346C133.91 108.991 124.994 126.235 109.833 135.908C94.8294 145.481 76.3552 142.701 58.6981 140.527Z" fill="#FB8647"/>
<path fill-rule="evenodd" clip-rule="evenodd" d="M58.6981 140.527C38.6706 138.062 12.942 140.487 3.23441 122.786C-6.43506 105.155 14.0371 86.3786 18.2098 66.7002C22.3423 47.2109 12.2821 23.1406 27.169 9.90963C42.6025 -3.80728 67.2903 -1.37686 86.5942 5.92214C103.559 12.3366 111.879 29.6985 120.996 45.3866C129.383 59.8196 138.155 74.5611 136.112 91.1346C133.91 108.991 124.994 126.235 109.833 135.908C94.8294 145.481 76.3552 142.701 58.6981 140.527Z" fill="#FB8647"/>
</svg>
