<svg width="335" height="315" viewBox="0 0 335 315" fill="none" xmlns="http://www.w3.org/2000/svg">
<path d="M122.529 191.562L108.554 184.942C108.536 191.961 105.4 208 93 216L46.5 205.5C44.3333 202.5 39 197.1 35 199.5C29.8333 200.667 15.8 202.8 0.999985 202C2.33332 208.167 11.8 219 39 213C54.3333 221.833 89.3 238.8 106.5 236C114.186 226.541 128.152 204.411 122.529 191.562Z" fill="#FAB197"/>
<path d="M122.529 191.562L108.554 184.942C108.536 191.961 105.4 208 93 216L46.5 205.5C44.3333 202.5 39 197.1 35 199.5C29.8333 200.667 15.8 202.8 0.999985 202C2.33332 208.167 11.8 219 39 213C54.3333 221.833 89.3 238.8 106.5 236C114.186 226.541 128.152 204.411 122.529 191.562ZM122.529 191.562L112.231 215.099" stroke="#FAB197" stroke-width="1.47107"/>
<path d="M215.889 194.503L226.975 186.412C227.317 194.108 230.8 211.7 242 220.5L289 209.5C291.5 206.833 297.3 201.8 300.5 203C302.5 205.333 312 209.3 334 206.5C333.5 211.667 325.4 221.1 297 217.5C291 223.5 269 236.6 229 241C223.667 234.667 212.5 217 210.5 197L215.889 194.503Z" fill="#FAB197" stroke="#FAB197" stroke-width="1.47107"/>
<path d="M83 63.5782C75.3504 126.54 115.599 129.041 147.718 129.776H166.842C233.334 125.657 255.557 88.0001 248 63.5784C217.807 -33.9999 99.0757 -6.28925 83 63.5782Z" fill="#FD9E6B"/>
<path d="M141.653 99.6196L148.272 101.091L151.215 107.71L149.008 112.124C141.358 110.947 140.917 103.297 141.653 99.6196Z" fill="#ED957D" stroke="#ED957D" stroke-width="1.47107"/>
<path d="M197.554 98.8847L190.934 100.356L187.992 106.976L190.199 111.389C197.848 110.212 198.29 102.562 197.554 98.8847Z" fill="#ED957D" stroke="#ED957D" stroke-width="1.47107"/>
<path d="M177.694 129.041H160.041L160.777 134.19H176.959L177.694 129.041Z" fill="#ED957D"/>
<path d="M125.471 312.926C112.526 311.749 114.193 307.532 116.645 305.571C125.471 297.48 139.446 298.951 141.653 298.951C143.418 298.951 149.744 292.576 152.686 289.389H160.777L166.661 293.802C167.397 294.047 169.015 294.537 169.603 294.537C170.339 294.537 171.81 290.86 172.546 290.86C173.134 290.86 177.449 294.783 179.165 296.744L179.901 313.661L125.471 312.926Z" fill="#FAB197" stroke="#FAB197" stroke-width="1.47107"/>
<path d="M55.5951 246.727C74.4249 240.254 111.986 249.424 128.413 254.818L132.827 247.463L123.265 244.52L124.736 193.033L107.818 182.735C110.172 158.61 136.259 149.146 149.008 147.43C149.008 165.082 162.248 169.496 168.868 169.496C183.579 169.496 187.992 155.275 188.727 147.43C211.676 148.018 224.278 171.702 227.711 183.471C225.357 191.709 213.49 195.73 207.851 196.711L210.793 245.992L204.909 247.463L207.851 256.289L213 254.818C236.537 248.345 265.959 248.198 277.727 248.934C290.084 248.934 291.212 261.683 290.232 268.058C289.055 282.18 245.119 300.421 223.298 307.777L216.678 311.454H180.636L178.43 293.801C176.959 292.576 173.722 290.124 172.546 290.124C171.369 290.124 172.055 292.085 172.546 293.066L166.661 293.801L162.248 290.124H153.422L141.653 298.215L126.942 301.157L116.645 305.57C87.8117 300.863 63.9312 283.504 55.5951 275.413C39.7075 260.114 48.9753 249.914 55.5951 246.727Z" fill="#FF5900" stroke="#FF5900" stroke-width="1.47107"/>
<path d="M79.1323 257.76C85.9973 268.058 109.731 288.506 149.744 287.917C133.807 276.884 97.3736 255.407 79.1323 257.76Z" fill="#C24400"/>
<path d="M258.603 259.41C251.738 269.708 228.005 290.156 187.992 289.567C203.928 278.534 240.362 257.056 258.603 259.41Z" fill="#C24400"/>
<path d="M160.33 129.777C162.684 145.076 155.138 147.92 150.479 147.43C155.775 163.906 164.743 166.554 169.157 165.818C180.925 165.818 186.319 153.559 187.545 147.43C177.542 147.43 175.531 135.661 175.776 129.777C189.016 120.215 191.958 103.298 190.487 103.298C189.31 103.298 189.016 97.4134 189.016 94.4713C186.662 90.9407 177.738 86.1352 173.57 84.1738C167.097 91.8234 156.652 96.1875 152.239 97.4134C146.943 99.1787 148.071 106.975 149.297 110.653C151.062 119.48 157.388 127.08 160.33 129.777Z" fill="#FEB093" stroke="#FEB093" stroke-width="1.47107"/>
<path d="M150.479 146.694C150.479 164.936 162.493 167.534 168.868 167.289C181.813 167.878 187.011 154.295 187.992 146.694" stroke="#BA4405" stroke-width="4.41322"/>
</svg>
